<!--?xml version="1.0" standalone="no"?-->
<svg id="sw-js-blob-svg" viewBox="0 0 100 100" xmlns="http://www.w3.org/2000/svg" version="1.1">
<defs> 
    <linearGradient id="sw-gradient" x1="0" x2="1" y1="1" y2="0">
        <stop id="stop1" stop-color="rgba(241, 228, 232, 1)" offset="0%"></stop>
        <stop id="stop2" stop-color="rgba(151, 115, 144, 1)" offset="100%"></stop>
    </linearGradient>
</defs>
<path fill="url(#sw-gradient)" d="M24,-30.2C30.2,-23.4,33.8,-15,36.4,-5.6C39,3.7,40.7,14.1,36.5,20.8C32.3,27.5,22.3,30.7,12.5,34.2C2.6,37.8,-7,41.8,-16.2,40.3C-25.4,38.8,-34.2,31.8,-38.4,22.9C-42.7,14,-42.4,3.3,-39.9,-6.3C-37.3,-15.9,-32.5,-24.4,-25.5,-31.2C-18.4,-37.9,-9.2,-42.8,-0.2,-42.6C8.9,-42.4,17.7,-37.1,24,-30.2Z" width="100%" height="100%" transform="translate(50 50)" stroke-width="0" style="transition: all 0.3s ease 0s;" stroke="url(#sw-gradient)"></path>
</svg>